<svg xmlns="http://www.w3.org/2000/svg" viewBox="0 0 39.03 36.34" width="100%" height="100%"><title>attach_file</title><g id="Layer_2" data-name="Layer 2"><g id="Layer_1-2" data-name="Layer 1"><path d="M37.13,1.9c-2.59-2.6-6.58-2.56-9.43.26Q18.7,11,9.83,20c-2.28,2.3-2.38,5.13-.38,7.06s4.54,1.82,7-.62c3.06-3,6.08-6.07,9.12-9.11,1.1-1.1,2.22-2.18,3.28-3.3l-1.37-1.31c-.18.19-.35.39-.53.57C23,17.25,19,21.19,15.11,25.16c-1.4,1.41-2.91,2-4.46.42s-.82-3,.48-4.25C17.09,15.38,23,9.4,29,3.49c2.24-2.21,4.86-2.2,6.82-.17s1.8,4.53-.3,6.65c-7.5,7.57-15,15.18-22.69,22.52a7.76,7.76,0,0,1-5.79,1.73c-5.26-.84-6.91-7-3.08-11,5.52-5.65,11.17-11.19,16.74-16.8.09-.09.17-.2.26-.3L19.66,4.9C13.94,10.59,8.18,16.24,2.57,22a8.25,8.25,0,0,0,0,12,8.36,8.36,0,0,0,11.83-.29Q25.7,22.62,36.83,11.33C39.68,8.45,39.73,4.51,37.13,1.9Z"/></g></g></svg>
