<svg xmlns="http://www.w3.org/2000/svg" viewBox="0 0 26.63 22.73" width="100%" height="100%"><title>calculation</title><polygon points="13.27 5.65 7.84 5.65 7.84 0 5.43 0 5.43 5.65 0 5.65 0 8.04 5.43 8.04 5.43 13.66 7.84 13.66 7.84 8.04 13.27 8.04 13.27 5.65"/><polygon points="21.29 11.53 17.45 15.37 13.45 11.38 11.75 13.08 15.75 17.07 11.9 20.91 13.59 22.6 17.44 18.76 21.41 22.73 23.11 21.04 19.13 17.06 22.98 13.22 21.29 11.53"/><rect x="15.08" y="4.41" width="12.81" height="1.75" transform="translate(2.55 16.74) rotate(-45)"/><circle cx="18.01" cy="1.82" r="1.67" transform="translate(3.99 13.27) rotate(-45)"/><circle cx="24.95" cy="8.76" r="1.67" transform="translate(1.11 20.21) rotate(-45)"/></svg>
