<svg xmlns="http://www.w3.org/2000/svg" viewBox="0 0 18.44 24.24" width="100%" height="100%"><title>client</title><path  d="M9.22,10.69A5.34,5.34,0,1,1,9.22,0,5.27,5.27,0,0,1,12.6,1.23a5.29,5.29,0,0,1,0,8.23A5.27,5.27,0,0,1,9.22,10.69ZM9.22,1a4.34,4.34,0,1,0,0,8.69,4.28,4.28,0,0,0,2.75-1A4.29,4.29,0,0,0,12,2,4.28,4.28,0,0,0,9.22,1Z"/><path  d="M16.33,24.24H2.11a2.12,2.12,0,0,1-1.58-.71A2,2,0,0,1,0,21.93C.7,16,4.58,11.73,9.22,11.73s8.52,4.29,9.21,10.2a2,2,0,0,1-.51,1.6A2.12,2.12,0,0,1,16.33,24.24ZM9.22,12.73c-4.06,0-7.59,4-8.21,9.31a1,1,0,0,0,.26.82,1.12,1.12,0,0,0,.84.38H16.33a1.12,1.12,0,0,0,.84-.38,1,1,0,0,0,.26-.82C16.81,16.74,13.28,12.73,9.22,12.73Z"/></svg>
