<svg xmlns="http://www.w3.org/2000/svg" viewBox="0 0 30.02 18.44" width="100%" height="100%"><title>e file</title><path  d="M29.43.7l-21,8.2a.43.43,0,0,0-.26.28l-1,3.25.67-4.6L27.48.62A.32.32,0,0,0,27.36,0L.48,1a.5.5,0,0,0-.31.87L6.36,7.06A1.77,1.77,0,0,1,7,8.68L5.6,18h0a.42.42,0,0,0,.63.38l7.11-4.14a.43.43,0,0,1,.49,0l2.64,2.24a.43.43,0,0,0,.6,0L29.91,1.37A.43.43,0,0,0,29.43.7Zm-27.28,1L22.32,1a.32.32,0,0,1,.12.62L7.8,7A.31.31,0,0,1,7.49,7L2,2.27A.32.32,0,0,1,2.15,1.71Zm10.3,12.12L7.62,16.65A.43.43,0,0,1,7,16.16l1.63-5.53a.43.43,0,0,1,.69-.21l3.2,2.71A.43.43,0,0,1,12.45,13.83ZM27.21,3.3,17,15.32a.43.43,0,0,1-.6,0L9.92,9.88A.43.43,0,0,1,10,9.15L26.73,2.62A.43.43,0,0,1,27.21,3.3Z"/></svg>
