<svg xmlns="http://www.w3.org/2000/svg" viewBox="0 0 22.5 22.5" width="100%" height="100%"><title>help</title><g id="Layer_2" data-name="Layer 2"><g id="Layer_1-2" data-name="Layer 1"><path d="M9.42,13.74V13a3.65,3.65,0,0,1,.1-.89,3,3,0,0,1,.31-.76,3.65,3.65,0,0,1,.53-.7,7.65,7.65,0,0,1,.79-.7q.4-.32.68-.57a3,3,0,0,0,.45-.49,1.67,1.67,0,0,0,.25-.51,2.29,2.29,0,0,0,.08-.62,1.2,1.2,0,0,0-.37-.9,1.57,1.57,0,0,0-1.12-.35,4.18,4.18,0,0,0-1.42.28,16,16,0,0,0-1.58.68l-1-2.12A9.22,9.22,0,0,1,8,4.92a9.85,9.85,0,0,1,1-.38,8.3,8.3,0,0,1,1.06-.26,6,6,0,0,1,1.05-.1,6.15,6.15,0,0,1,1.76.23,3.77,3.77,0,0,1,1.33.68,3,3,0,0,1,.84,1.09,3.51,3.51,0,0,1,.29,1.46,4,4,0,0,1-.13,1.08,3.26,3.26,0,0,1-.4.88,4.37,4.37,0,0,1-.66.79q-.4.38-.92.8t-.66.55a2.67,2.67,0,0,0-.4.44,1.28,1.28,0,0,0-.2.44,2.35,2.35,0,0,0-.05.53v.57ZM9.11,17a2,2,0,0,1,.13-.76,1.27,1.27,0,0,1,.36-.5,1.43,1.43,0,0,1,.54-.28,2.51,2.51,0,0,1,.67-.09,2.34,2.34,0,0,1,.64.09,1.43,1.43,0,0,1,.53.28,1.32,1.32,0,0,1,.36.5,1.93,1.93,0,0,1,.13.76,1.84,1.84,0,0,1-.13.74,1.39,1.39,0,0,1-.9.8,2.2,2.2,0,0,1-.64.09,2.36,2.36,0,0,1-.67-.09,1.42,1.42,0,0,1-.54-.29,1.37,1.37,0,0,1-.36-.51A1.9,1.9,0,0,1,9.11,17Z"/><path  d="M11.25,22.5A11.25,11.25,0,1,1,22.5,11.25,11.26,11.26,0,0,1,11.25,22.5Zm0-22A10.75,10.75,0,1,0,22,11.25,10.76,10.76,0,0,0,11.25.5Z"/></g></g></svg>
