<svg xmlns="http://www.w3.org/2000/svg" viewBox="0 0 14.7 26.08" width="100%" height="100%"><title>payment</title><path  d="M14.2,14.78a5.07,5.07,0,0,0-1.56-1.84,15.39,15.39,0,0,0-3.33-1.72L8,10.67V7.22a8.53,8.53,0,0,1,2.2.37q.76.24,1.58.56a1.27,1.27,0,0,0,1.62-.7L14,6a1.26,1.26,0,0,0-.69-1.67,16,16,0,0,0-4.14-1A1.28,1.28,0,0,1,8,2.09V0H6.48V2.2A1.26,1.26,0,0,1,5.42,3.45,7.87,7.87,0,0,0,2,4.68a4.6,4.6,0,0,0-2,4,6,6,0,0,0,.48,2.54A4.87,4.87,0,0,0,2,13a15.62,15.62,0,0,0,3.28,1.73l1.2.53v2.8a1.26,1.26,0,0,1-1.42,1.27A16.27,16.27,0,0,1,3.35,19q-.86-.22-1.64-.48A1.26,1.26,0,0,0,0,19.74v1.62a1.25,1.25,0,0,0,.82,1.19,14.09,14.09,0,0,0,2,.53,19.44,19.44,0,0,0,3.6.29h.05v2.72H8V24.41a1.26,1.26,0,0,1,1-1.25,8,8,0,0,0,3.61-1.36,5.34,5.34,0,0,0,2.07-4.54A5.65,5.65,0,0,0,14.2,14.78ZM6,9.68a1.49,1.49,0,0,1-.75-1.23c0-.61.42-1,1.23-1.16V10A5.3,5.3,0,0,1,6,9.68Zm2,9.68V16a5.19,5.19,0,0,1,1.13.77,1.39,1.39,0,0,1,.38,1C9.48,18.63,9,19.14,8,19.36Z"/></svg>
