<svg xmlns="http://www.w3.org/2000/svg" viewBox="0 0 12.69 12.69">
  <title>logo test</title>
  <g id="Layer_2" data-name="Layer 2">
    <g id="Layer_1-2" data-name="Layer 1">
      <rect fill="white" width="12.69" height="12.69" rx="2.53" ry="2.53"/>
      <path fill="#3a4673" d="M11,3.37a2.19,2.19,0,0,0-1.82-.81,2.43,2.43,0,0,0-1.06.22,2.12,2.12,0,0,0-.81.71h0l-.13-.77H3.25V1.34H2.53L2,2.71H1v.76H2V7Q2,8.82,4.19,8.82a4.4,4.4,0,0,0,.71-.06,3.17,3.17,0,0,0,.52-.12V7.89A3,3,0,0,1,4.95,8,4.59,4.59,0,0,1,4.4,8a1.21,1.21,0,0,1-.85-.28,1,1,0,0,1-.3-.8V3.48H5.58a.8.8,0,0,1,.8.8v7.08h1V8.89a7.42,7.42,0,0,0,0-.76l0-.22h.07a2.18,2.18,0,0,0,1.86.87A2.19,2.19,0,0,0,11,7.95a3.62,3.62,0,0,0,.65-2.29A3.57,3.57,0,0,0,11,3.37Zm-.83,4a1.68,1.68,0,0,1-1.43.54,1.4,1.4,0,0,1-1-.53,3,3,0,0,1-.4-1.76V5.46a2.6,2.6,0,0,1,.41-1.58,1.54,1.54,0,0,1,1.29-.5,1.4,1.4,0,0,1,1.2.58,2.83,2.83,0,0,1,.42,1.68A2.89,2.89,0,0,1,10.22,7.4Z"/>
    </g>
  </g>
</svg>
